HIERARCHY
ROOT Hips
{
	OFFSET 0.00 0.00 0.00
	CHANNELS 6 Xposition Yposition Zposition Zrotation Xrotation Yrotation
		JOINT Spine
		{
			OFFSET 0.00 10.00 0.00
			CHANNELS 3 Zrotation Xrotation Yrotation
			JOINT Spine1
			{
				OFFSET 0.00 10.00 0.00
				CHANNELS 3 Zrotation Xrotation Yrotation
				JOINT Spine2
				{
					OFFSET 0.00 10.00 0.00
					CHANNELS 3 Zrotation Xrotation Yrotation
					JOINT Neck
					{
						OFFSET 0.00 10.00 0.00
						CHANNELS 3 Zrotation Xrotation Yrotation
						JOINT Head
						{
							OFFSET 0.00 10.00 0.00
							CHANNELS 3 Zrotation Xrotation Yrotation
						End Site
						{
							OFFSET 0.00 0.00 0.00
						}
					}
					End Site
					{
						OFFSET 0.00 0.00 0.00
					}
				}
					JOINT LeftArm
					{
						OFFSET 10.00 0.00 0.00
						CHANNELS 3 Zrotation Xrotation Yrotation
						JOINT LeftForeArm
						{
							OFFSET 20.00 0.00 0.00
							CHANNELS 3 Zrotation Xrotation Yrotation
							JOINT LeftHand
							{
								OFFSET 20.00 0.00 0.00
								CHANNELS 3 Zrotation Xrotation Yrotation
							End Site
							{
								OFFSET 0.00 0.00 0.00
							}
						}
						End Site
						{
							OFFSET 0.00 0.00 0.00
						}
					}
					End Site
					{
						OFFSET 0.00 0.00 0.00
					}
				}
					JOINT RightArm
					{
						OFFSET -10.00 0.00 0.00
						CHANNELS 3 Zrotation Xrotation Yrotation
						JOINT RightForeArm
						{
							OFFSET -20.00 0.00 0.00
							CHANNELS 3 Zrotation Xrotation Yrotation
							JOINT RightHand
							{
								OFFSET -20.00 0.00 0.00
								CHANNELS 3 Zrotation Xrotation Yrotation
							End Site
							{
								OFFSET 0.00 0.00 0.00
							}
						}
						End Site
						{
							OFFSET 0.00 0.00 0.00
						}
					}
					End Site
					{
						OFFSET 0.00 0.00 0.00
					}
				}
				End Site
				{
					OFFSET 0.00 0.00 0.00
				}
			}
			End Site
			{
				OFFSET 0.00 0.00 0.00
			}
		}
		End Site
		{
			OFFSET 0.00 0.00 0.00
		}
	}
		JOINT LeftUpLeg
		{
			OFFSET 5.00 -10.00 0.00
			CHANNELS 3 Zrotation Xrotation Yrotation
			JOINT LeftLeg
			{
				OFFSET 0.00 -20.00 0.00
				CHANNELS 3 Zrotation Xrotation Yrotation
				JOINT LeftFoot
				{
					OFFSET 0.00 -20.00 0.00
					CHANNELS 3 Zrotation Xrotation Yrotation
					JOINT LeftToeBase
					{
						OFFSET 0.00 -5.00 5.00
						CHANNELS 3 Zrotation Xrotation Yrotation
					End Site
					{
						OFFSET 0.00 0.00 0.00
					}
				}
				End Site
				{
					OFFSET 0.00 0.00 0.00
				}
			}
			End Site
			{
				OFFSET 0.00 0.00 0.00
			}
		}
		End Site
		{
			OFFSET 0.00 0.00 0.00
		}
	}
		JOINT RightUpLeg
		{
			OFFSET -5.00 -10.00 0.00
			CHANNELS 3 Zrotation Xrotation Yrotation
			JOINT RightLeg
			{
				OFFSET 0.00 -20.00 0.00
				CHANNELS 3 Zrotation Xrotation Yrotation
				JOINT RightFoot
				{
					OFFSET 0.00 -20.00 0.00
					CHANNELS 3 Zrotation Xrotation Yrotation
					JOINT RightToeBase
					{
						OFFSET 0.00 -5.00 5.00
						CHANNELS 3 Zrotation Xrotation Yrotation
					End Site
					{
						OFFSET 0.00 0.00 0.00
					}
				}
				End Site
				{
					OFFSET 0.00 0.00 0.00
				}
			}
			End Site
			{
				OFFSET 0.00 0.00 0.00
			}
		}
		End Site
		{
			OFFSET 0.00 0.00 0.00
		}
	}
	End Site
	{
		OFFSET 0.00 0.00 0.00
	}
}
MOTION
Frames: 15
Frame Time: 0.034483
6.2294 -0.0751 -1.1024 178.4255 160.3578 -9.0772 -7.5561 5.6219 -0.3715 -7.5561 5.6219 -0.3715 75.6293 -14.5025 -11.2791 32.6420 45.2136 13.9035 -45.0962 -65.8470 30.0957 -67.5648 5.6089 8.3759 -95.8616 2.0315 1.8337 -133.2963 -47.1556 -21.3415 76.7737 -11.6582 14.6860 56.6124 -29.8111 52.5997 -154.5815 141.7205 66.0343 4.7679 1.6422 0.0684 5.8729 27.5047 1.4385 -23.6082 26.5064 -5.6359 0.8462 24.0990 -3.9625 0.2637 3.7685 0.0087 -8.4829 20.7324 -1.5545 -10.6154 -35.5485 3.4117 1.7566 8.3807 -23.6371
6.2461 -0.0648 -1.1797 178.4954 162.2889 -9.6350 -7.8624 4.9476 -0.3402 -7.8624 4.9476 -0.3402 76.7796 -12.5707 -9.9746 32.2406 46.1603 14.0422 -44.4941 -66.7320 30.1520 -64.0865 9.6429 15.3500 -98.5547 5.7919 4.9869 -139.0775 -42.3533 -16.4499 71.2118 -17.1409 23.7702 -2.1017 1.7407 79.2623 -128.0663 80.0207 44.4700 4.7017 1.4100 0.0579 5.7946 28.6668 1.4818 -23.3561 29.0364 -6.1275 0.8092 25.1620 -3.6249 0.2049 4.2112 0.0075 -8.3029 24.0810 -1.7739 -10.3341 -33.6082 3.1286 1.8480 9.1665 -22.7514
6.2969 -0.0413 -1.2041 178.6454 164.2181 -9.7505 -8.1405 4.6141 -0.3285 -8.1405 4.6141 -0.3285 77.6023 -11.3863 -9.1659 32.5373 46.4437 14.2736 -45.8892 -65.5897 30.5144 -62.1230 10.6487 17.5910 -100.3778 8.4613 7.0564 -142.6285 -31.0841 -10.7468 65.2100 -20.1671 31.0732 -79.5820 55.3156 64.3572 -124.8857 59.3121 33.0955 4.3878 1.0243 0.0392 5.8284 29.1081 1.5144 -23.5024 29.1168 -6.1847 0.5248 23.9599 -2.4729 0.0481 4.6899 0.0020 -8.1364 26.0448 -1.8848 -10.4609 -33.8632 3.1926 1.2240 6.0799 -22.7455
6.3212 -0.0018 -1.2060 178.8895 167.0045 -9.7271 -8.3604 4.4155 -0.3229 -8.3604 4.4155 -0.3229 77.2867 -10.0917 -8.0761 32.2235 46.6776 14.2087 -46.1108 -65.6133 30.6844 -58.5446 14.4591 25.5032 -103.7336 32.9357 26.1296 -152.4835 5.1440 1.2603 44.3891 -16.9002 40.0168 -94.5703 57.1805 53.4204 -129.8034 34.6503 16.6259 4.2495 0.9932 0.0368 5.9789 28.4807 1.5187 -23.8235 27.6088 -5.9341 0.5105 23.3983 -2.4650 -0.1718 4.9487 -0.0074 -7.8809 26.2223 -1.8383 -9.9308 -33.2459 2.9716 1.4647 7.1481 -23.1329
6.4086 0.0435 -1.1053 179.1587 169.2164 -8.8963 -8.7383 3.3496 -0.2560 -8.7383 3.3496 -0.2560 75.4468 -10.8467 -8.4004 31.5622 45.7912 13.6128 -49.0577 -64.1854 31.9398 -54.7609 11.1675 21.3793 -109.8646 32.7269 23.2928 -159.8459 -24.0663 -4.3388 16.4195 -3.0525 20.9267 -105.9796 17.3616 13.1310 -129.9071 33.0178 15.7704 4.2128 -0.5976 -0.0220 6.5405 27.4058 1.5964 -23.8191 24.9155 -5.3354 0.9874 21.9203 -5.0957 -0.3190 4.9623 -0.0138 -7.4992 25.6243 -1.7078 -10.5406 -33.2427 3.1547 1.8870 8.5719 -24.7867
6.4284 0.0909 -1.3355 179.5109 174.9484 -11.0541 -9.1661 0.2888 -0.0232 -9.1661 0.2888 -0.0232 74.2989 -5.0614 -3.8358 29.4871 46.2188 12.8146 -45.8988 -69.3014 32.6253 -51.4198 11.0075 22.6333 -113.5835 42.5807 28.6203 -161.9101 -16.8660 -2.7039 -9.3548 2.1075 25.3407 -116.8030 18.5280 11.4599 -139.6322 47.9609 18.5736 4.2141 -0.9827 -0.0362 7.0199 25.9727 1.6208 -24.0276 22.9066 -4.9376 0.3490 20.3992 -1.9393 -0.4414 1.7446 -0.0067 -7.4526 23.4489 -1.5488 -10.5628 -32.4650 3.0833 1.7737 7.8330 -25.4816
6.5500 0.0914 -1.5748 179.4325 175.1283 -13.2803 -9.2142 -2.8110 0.2266 -9.2142 -2.8110 0.2266 70.1406 -2.1051 -1.4780 26.5171 47.7727 11.9143 -39.4950 -78.0840 32.4646 -46.5765 13.0554 29.7746 -115.9103 64.0334 42.7503 -167.8091 28.2962 3.0839 -37.9852 -9.6209 -27.4794 -135.5809 -109.4198 -59.9576 -151.3590 38.8422 10.2859 4.5755 -1.4125 -0.0564 7.9954 25.6960 1.8264 -23.9246 19.9272 -4.2631 0.4874 18.1214 -3.0558 -0.4732 1.9822 -0.0082 -7.4308 22.5364 -1.4825 -13.7528 -30.3030 3.7407 1.5430 6.1987 -27.9322
6.6183 0.0885 -1.7632 179.3279 174.8689 -14.9162 -9.3112 -2.9028 0.2364 -9.3112 -2.9028 0.2364 66.0551 -1.9141 -1.2444 24.9588 48.7665 11.4571 -37.3038 -80.7593 32.0341 -43.5657 11.1578 27.4707 -116.7350 57.5127 37.3536 -166.7428 0.2898 0.0337 -50.8833 -15.3746 -31.6809 179.1779 178.7238 -65.5807 -163.6270 73.2275 12.2029 4.8232 -1.6992 -0.0716 8.5029 24.7355 1.8677 -24.7725 17.3633 -3.8412 0.9471 16.6612 -6.4611 -0.7820 1.5646 -0.0107 -7.1457 22.4708 -1.4212 -14.9391 -29.1813 3.9094 1.5055 6.1338 -27.5576
6.6254 0.0875 -1.8882 179.2933 174.9726 -15.9926 -9.5632 -1.4152 0.1184 -9.5632 -1.4152 0.1184 63.8200 -1.5065 -0.9381 24.3933 48.3395 11.0811 -37.1999 -80.6346 31.8763 -42.4929 11.2872 28.5208 -119.0696 52.0769 32.0679 -170.1300 5.6336 0.4868 -55.5462 -11.3675 -21.4036 -173.1235 -169.0628 -64.2217 -163.2938 94.7043 18.1146 4.9441 -1.9033 -0.0822 8.6916 22.3070 1.7168 -25.2149 16.2530 -3.6585 0.7924 15.9398 -5.6554 -1.2006 0.9729 -0.0102 -7.0258 21.5398 -1.3380 -15.1914 -30.2401 4.1271 1.5852 6.4640 -27.5309
6.6199 0.0889 -1.9421 179.2963 175.1332 -16.4447 -9.9869 -0.7755 0.0678 -9.9869 -0.7755 0.0678 61.9358 -1.4530 -0.8720 24.2462 48.1185 10.9561 -38.8253 -79.2073 32.5103 -45.1392 8.7442 20.8459 -121.6356 30.8178 17.5009 -172.5207 -80.5166 -6.3361 -58.7612 -8.6089 -15.2290 -135.7426 -103.1335 -54.2651 -157.2863 80.3042 19.2343 5.1386 -1.6679 -0.0748 8.9965 21.9036 1.7443 -24.7983 17.3137 -3.8342 0.7539 15.6106 -5.4958 -1.6181 0.7695 -0.0109 -6.9246 21.9913 -1.3470 -15.3442 -30.0549 4.1424 1.6259 6.7638 -27.0038
6.6290 0.1029 -1.9630 179.3873 175.7977 -16.5842 -10.6189 -1.0284 0.0956 -10.6189 -1.0284 0.0956 61.6140 -1.0056 -0.5996 23.7301 47.8718 10.6559 -39.4573 -78.8613 32.8607 -48.6435 5.7299 12.6366 -125.2292 8.5952 4.4587 -171.3537 -100.7188 -10.4275 -54.6200 -6.2399 -12.0517 -109.6941 -49.7827 -36.1892 -146.5006 61.0735 20.1347 5.3953 -1.6845 -0.0794 9.6111 19.7147 1.6739 -24.1650 15.9747 -3.4409 0.2908 12.4094 -2.6747 -1.7286 0.4931 -0.0074 -6.8415 21.8176 -1.3201 -15.3202 -30.3468 4.1778 1.6888 6.7818 -27.9367
6.6355 0.1194 -1.9848 179.5020 176.6125 -16.7226 -11.5535 -1.2405 0.1255 -11.5535 -1.2405 0.1255 61.5031 -0.5606 -0.3335 23.6582 47.8845 10.6260 -40.4662 -78.2998 33.4062 -50.5116 4.7678 10.0862 -126.7990 7.5396 3.7797 -171.7752 -98.7787 -9.5865 -63.6662 -6.6528 -10.6969 -100.1715 -22.9004 -19.2339 -135.5150 43.7975 18.6707 5.4972 -1.3900 -0.0667 9.3993 19.8472 1.6480 -24.0020 17.2294 -3.6891 -0.1690 6.9251 2.7932 -1.7637 0.6659 -0.0103 -6.6392 21.9064 -1.2863 -14.6576 -30.6034 4.0307 1.0210 4.2460 -27.0312
6.6688 0.1284 -2.0779 179.5611 177.1226 -17.3436 -12.8970 -0.8332 0.0942 -12.8970 -0.8332 0.0942 60.9304 2.4220 1.4248 23.4051 48.7419 10.7213 -40.5925 -77.1171 32.8509 -53.1673 3.5871 7.1613 -127.7699 -0.6209 -0.3044 -172.4709 -109.1039 -10.5609 -74.1973 2.1448 2.8358 -94.1815 -19.6612 -18.3005 -126.7143 31.5655 16.1418 5.7430 -1.4831 -0.0744 9.2995 20.1326 1.6544 -24.2050 18.6004 -4.0222 -0.2422 5.5277 5.0135 -1.4680 0.2936 -0.0038 -6.5789 21.7461 -1.2650 -13.3929 -31.3958 3.7799 0.5755 2.6620 -24.3927
6.6956 0.1340 -2.3018 179.6021 177.5965 -18.7968 -15.3921 2.7576 -0.3727 -15.3921 2.7576 -0.3727 58.3692 5.3514 2.9904 24.4682 49.4312 11.3988 -44.7759 -72.5678 33.6517 -56.5473 8.4530 15.6469 -128.7911 15.5470 7.4857 -175.7423 -108.4426 -5.9055 -78.2851 20.9443 25.5894 -90.1873 9.4658 9.4351 -123.0129 40.1152 22.4198 5.7654 -1.9094 -0.0962 9.6285 21.1370 1.8005 -24.6503 24.8564 -5.5136 -0.0389 1.7895 2.4932 -1.0189 -0.9306 0.0083 -6.7128 23.1631 -1.3772 -11.5159 -32.7049 3.3894 -0.6016 -3.4017 -20.0524
6.5730 0.1339 -2.3226 179.5822 177.5401 -19.2775 -17.7030 8.8911 -1.3873 -17.7030 8.8911 -1.3873 53.3564 1.6781 0.8432 23.4509 47.9862 10.5559 -47.5889 -71.8625 35.4427 -60.2287 7.3772 12.6845 -135.3828 20.9538 8.6780 176.0743 128.0765 -8.0525 -82.8480 21.6507 24.4553 -87.2770 9.6579 10.1258 -119.5058 38.9357 23.2938 6.2513 -3.1587 -0.1725 10.3250 21.4544 1.9611 -23.4343 27.3038 -5.7677 0.0027 2.1881 -0.1398 0.7305 -0.5855 -0.0037 -7.3107 23.1123 -1.4968 -10.5229 -34.5173 3.2775 -0.6228 -4.1183 -17.1908
